<?xml version="1.0" encoding="UTF-8" standalone="no"?>
<svg
   xmlns:dc="http://purl.org/dc/elements/1.1/"
   xmlns:cc="http://creativecommons.org/ns#"
   xmlns:rdf="http://www.w3.org/1999/02/22-rdf-syntax-ns#"
   xmlns:svg="http://www.w3.org/2000/svg"
   xmlns="http://www.w3.org/2000/svg"
   xmlns:sodipodi="http://sodipodi.sourceforge.net/DTD/sodipodi-0.dtd"
   xmlns:inkscape="http://www.inkscape.org/namespaces/inkscape"
   version="1.1"
   id="Capa_1"
   x="0px"
   y="0px"
   viewBox="0 0 1174 486.521"
   style="enable-background:new 0 0 1174 486.521;"
   xml:space="preserve"
   sodipodi:docname="AGROMIN - LOGOS 2021-05.svgz"><metadata
   id="metadata84"><rdf:RDF><cc:Work
       rdf:about=""><dc:format>image/svg+xml</dc:format><dc:type
         rdf:resource="http://purl.org/dc/dcmitype/StillImage" /></cc:Work></rdf:RDF></metadata><defs
   id="defs82" /><sodipodi:namedview
   pagecolor="#ffffff"
   bordercolor="#666666"
   borderopacity="1"
   objecttolerance="10"
   gridtolerance="10"
   guidetolerance="10"
   inkscape:pageopacity="0"
   inkscape:pageshadow="2"
   inkscape:window-width="640"
   inkscape:window-height="480"
   id="namedview80" />
<style
   type="text/css"
   id="style2">
	.st0{stroke:#000000;stroke-width:0.1673;stroke-miterlimit:10;}
	.st1{fill-rule:evenodd;clip-rule:evenodd;fill:url(#SVGID_1_);}
	.st2{fill-rule:evenodd;clip-rule:evenodd;fill:url(#SVGID_2_);}
	.st3{fill-rule:evenodd;clip-rule:evenodd;fill:url(#SVGID_3_);}
	.st4{fill-rule:evenodd;clip-rule:evenodd;fill:url(#SVGID_4_);}
	.st5{fill-rule:evenodd;clip-rule:evenodd;fill:url(#SVGID_5_);}
	.st6{fill-rule:evenodd;clip-rule:evenodd;fill:url(#SVGID_6_);}
	.st7{fill-rule:evenodd;clip-rule:evenodd;fill:url(#SVGID_7_);}
	.st8{fill-rule:evenodd;clip-rule:evenodd;fill:url(#SVGID_8_);}
	.st9{fill-rule:evenodd;clip-rule:evenodd;fill:url(#SVGID_9_);}
	.st10{fill-rule:evenodd;clip-rule:evenodd;fill:url(#SVGID_10_);}
	.st11{fill-rule:evenodd;clip-rule:evenodd;fill:url(#SVGID_11_);}
	.st12{fill-rule:evenodd;clip-rule:evenodd;fill:url(#SVGID_12_);}
	.st13{fill-rule:evenodd;clip-rule:evenodd;fill:url(#SVGID_13_);}
	.st14{fill-rule:evenodd;clip-rule:evenodd;fill:url(#SVGID_14_);}
	.st15{fill-rule:evenodd;clip-rule:evenodd;fill:url(#SVGID_15_);}
	.st16{fill-rule:evenodd;clip-rule:evenodd;fill:url(#SVGID_16_);}
	.st17{fill-rule:evenodd;clip-rule:evenodd;fill:url(#SVGID_17_);}
	.st18{fill-rule:evenodd;clip-rule:evenodd;fill:url(#SVGID_18_);}
	.st19{fill-rule:evenodd;clip-rule:evenodd;fill:url(#SVGID_19_);}
	.st20{fill-rule:evenodd;clip-rule:evenodd;fill:url(#SVGID_20_);}
	.st21{fill-rule:evenodd;clip-rule:evenodd;fill:url(#SVGID_21_);}
	.st22{fill-rule:evenodd;clip-rule:evenodd;fill:url(#SVGID_22_);}
	.st23{fill-rule:evenodd;clip-rule:evenodd;fill:url(#SVGID_23_);}
	.st24{fill-rule:evenodd;clip-rule:evenodd;fill:url(#SVGID_24_);}
	.st25{fill-rule:evenodd;clip-rule:evenodd;fill:url(#SVGID_25_);}
	.st26{fill-rule:evenodd;clip-rule:evenodd;fill:url(#SVGID_26_);}
	.st27{fill-rule:evenodd;clip-rule:evenodd;fill:url(#SVGID_27_);}
	.st28{fill-rule:evenodd;clip-rule:evenodd;fill:url(#SVGID_28_);}
	.st29{fill-rule:evenodd;clip-rule:evenodd;fill:url(#SVGID_29_);}
	.st30{fill-rule:evenodd;clip-rule:evenodd;fill:url(#SVGID_30_);}
	.st31{fill-rule:evenodd;clip-rule:evenodd;fill:url(#SVGID_31_);}
	.st32{fill-rule:evenodd;clip-rule:evenodd;fill:url(#SVGID_32_);}
	.st33{fill-rule:evenodd;clip-rule:evenodd;fill:url(#SVGID_33_);}
	.st34{fill-rule:evenodd;clip-rule:evenodd;fill:url(#SVGID_34_);}
	.st35{fill-rule:evenodd;clip-rule:evenodd;fill:url(#SVGID_35_);}
	.st36{fill-rule:evenodd;clip-rule:evenodd;fill:url(#SVGID_36_);}
	.st37{fill-rule:evenodd;clip-rule:evenodd;fill:url(#SVGID_37_);}
	.st38{fill-rule:evenodd;clip-rule:evenodd;fill:url(#SVGID_38_);}
	.st39{fill-rule:evenodd;clip-rule:evenodd;fill:url(#SVGID_39_);}
	.st40{fill-rule:evenodd;clip-rule:evenodd;fill:url(#SVGID_40_);}
	.st41{fill-rule:evenodd;clip-rule:evenodd;fill:url(#SVGID_41_);}
	.st42{fill-rule:evenodd;clip-rule:evenodd;fill:url(#SVGID_42_);}
	.st43{fill-rule:evenodd;clip-rule:evenodd;fill:url(#SVGID_43_);}
	.st44{fill-rule:evenodd;clip-rule:evenodd;fill:url(#SVGID_44_);}
	.st45{fill-rule:evenodd;clip-rule:evenodd;fill:url(#SVGID_45_);}
	.st46{fill-rule:evenodd;clip-rule:evenodd;fill:url(#SVGID_46_);}
	.st47{fill-rule:evenodd;clip-rule:evenodd;fill:url(#SVGID_47_);}
	.st48{fill-rule:evenodd;clip-rule:evenodd;fill:url(#SVGID_48_);}
	.st49{fill-rule:evenodd;clip-rule:evenodd;fill:url(#SVGID_49_);}
	.st50{fill-rule:evenodd;clip-rule:evenodd;fill:url(#SVGID_50_);}
	.st51{fill-rule:evenodd;clip-rule:evenodd;fill:url(#SVGID_51_);}
	.st52{fill-rule:evenodd;clip-rule:evenodd;fill:url(#SVGID_52_);}
	.st53{fill-rule:evenodd;clip-rule:evenodd;fill:url(#SVGID_53_);}
	.st54{fill-rule:evenodd;clip-rule:evenodd;fill:url(#SVGID_54_);}
	.st55{fill-rule:evenodd;clip-rule:evenodd;fill:url(#SVGID_55_);}
	.st56{fill-rule:evenodd;clip-rule:evenodd;fill:url(#SVGID_56_);}
	.st57{fill-rule:evenodd;clip-rule:evenodd;fill:url(#SVGID_57_);}
	.st58{fill-rule:evenodd;clip-rule:evenodd;fill:url(#SVGID_58_);}
	.st59{fill-rule:evenodd;clip-rule:evenodd;fill:url(#SVGID_59_);}
	.st60{fill-rule:evenodd;clip-rule:evenodd;fill:url(#SVGID_60_);}
	.st61{fill-rule:evenodd;clip-rule:evenodd;fill:url(#SVGID_61_);}
	.st62{fill-rule:evenodd;clip-rule:evenodd;fill:url(#SVGID_62_);}
	.st63{fill-rule:evenodd;clip-rule:evenodd;fill:url(#SVGID_63_);}
	.st64{fill-rule:evenodd;clip-rule:evenodd;fill:url(#SVGID_64_);}
	.st65{fill-rule:evenodd;clip-rule:evenodd;fill:url(#SVGID_65_);}
	.st66{fill-rule:evenodd;clip-rule:evenodd;fill:url(#SVGID_66_);}
	.st67{fill-rule:evenodd;clip-rule:evenodd;fill:url(#SVGID_67_);}
	.st68{fill-rule:evenodd;clip-rule:evenodd;fill:url(#SVGID_68_);}
	.st69{fill-rule:evenodd;clip-rule:evenodd;fill:url(#SVGID_69_);}
	.st70{fill-rule:evenodd;clip-rule:evenodd;fill:url(#SVGID_70_);}
	.st71{fill-rule:evenodd;clip-rule:evenodd;fill:url(#SVGID_71_);}
	.st72{fill-rule:evenodd;clip-rule:evenodd;fill:url(#SVGID_72_);}
	.st73{fill:#383838;}
	.st74{fill-rule:evenodd;clip-rule:evenodd;fill:url(#SVGID_73_);}
	.st75{fill-rule:evenodd;clip-rule:evenodd;fill:url(#SVGID_74_);}
	.st76{fill-rule:evenodd;clip-rule:evenodd;fill:url(#SVGID_75_);}
	.st77{fill-rule:evenodd;clip-rule:evenodd;fill:url(#SVGID_76_);}
	.st78{fill-rule:evenodd;clip-rule:evenodd;fill:url(#SVGID_77_);}
	.st79{fill-rule:evenodd;clip-rule:evenodd;fill:url(#SVGID_78_);}
	.st80{fill-rule:evenodd;clip-rule:evenodd;fill:url(#SVGID_79_);}
	.st81{fill-rule:evenodd;clip-rule:evenodd;fill:url(#SVGID_80_);}
	.st82{fill-rule:evenodd;clip-rule:evenodd;fill:url(#SVGID_81_);}
	.st83{fill-rule:evenodd;clip-rule:evenodd;fill:url(#SVGID_82_);}
	.st84{fill-rule:evenodd;clip-rule:evenodd;fill:url(#SVGID_83_);}
	.st85{fill-rule:evenodd;clip-rule:evenodd;fill:url(#SVGID_84_);}
	.st86{fill-rule:evenodd;clip-rule:evenodd;fill:url(#SVGID_85_);}
	.st87{fill-rule:evenodd;clip-rule:evenodd;fill:url(#SVGID_86_);}
	.st88{fill-rule:evenodd;clip-rule:evenodd;fill:url(#SVGID_87_);}
	.st89{fill-rule:evenodd;clip-rule:evenodd;fill:url(#SVGID_88_);}
	.st90{fill-rule:evenodd;clip-rule:evenodd;fill:url(#SVGID_89_);}
	.st91{fill-rule:evenodd;clip-rule:evenodd;fill:url(#SVGID_90_);}
	.st92{fill-rule:evenodd;clip-rule:evenodd;fill:url(#SVGID_91_);}
	.st93{fill-rule:evenodd;clip-rule:evenodd;fill:url(#SVGID_92_);}
	.st94{fill-rule:evenodd;clip-rule:evenodd;fill:url(#SVGID_93_);}
	.st95{fill-rule:evenodd;clip-rule:evenodd;fill:url(#SVGID_94_);}
	.st96{fill-rule:evenodd;clip-rule:evenodd;fill:url(#SVGID_95_);}
	.st97{fill-rule:evenodd;clip-rule:evenodd;fill:url(#SVGID_96_);}
	.st98{fill-rule:evenodd;clip-rule:evenodd;fill:url(#SVGID_97_);}
	.st99{fill-rule:evenodd;clip-rule:evenodd;fill:url(#SVGID_98_);}
	.st100{fill-rule:evenodd;clip-rule:evenodd;fill:url(#SVGID_99_);}
	.st101{fill-rule:evenodd;clip-rule:evenodd;fill:url(#SVGID_100_);}
	.st102{fill-rule:evenodd;clip-rule:evenodd;fill:url(#SVGID_101_);}
	.st103{fill-rule:evenodd;clip-rule:evenodd;fill:url(#SVGID_102_);}
	.st104{fill-rule:evenodd;clip-rule:evenodd;fill:url(#SVGID_103_);}
	.st105{fill-rule:evenodd;clip-rule:evenodd;fill:url(#SVGID_104_);}
	.st106{fill-rule:evenodd;clip-rule:evenodd;fill:url(#SVGID_105_);}
	.st107{fill-rule:evenodd;clip-rule:evenodd;fill:url(#SVGID_106_);}
	.st108{fill-rule:evenodd;clip-rule:evenodd;fill:url(#SVGID_107_);}
	.st109{fill-rule:evenodd;clip-rule:evenodd;fill:url(#SVGID_108_);}
	.st110{fill-rule:evenodd;clip-rule:evenodd;fill:url(#SVGID_109_);}
	.st111{fill-rule:evenodd;clip-rule:evenodd;fill:url(#SVGID_110_);}
	.st112{fill-rule:evenodd;clip-rule:evenodd;fill:url(#SVGID_111_);}
	.st113{fill-rule:evenodd;clip-rule:evenodd;fill:url(#SVGID_112_);}
	.st114{fill-rule:evenodd;clip-rule:evenodd;fill:url(#SVGID_113_);}
	.st115{fill-rule:evenodd;clip-rule:evenodd;fill:url(#SVGID_114_);}
	.st116{fill-rule:evenodd;clip-rule:evenodd;fill:url(#SVGID_115_);}
	.st117{fill-rule:evenodd;clip-rule:evenodd;fill:url(#SVGID_116_);}
	.st118{fill-rule:evenodd;clip-rule:evenodd;fill:url(#SVGID_117_);}
</style>
<g
   id="g27">
	<radialGradient
   id="SVGID_1_"
   cx="243.5074"
   cy="266.926"
   r="41.549"
   gradientUnits="userSpaceOnUse">
		<stop
   offset="0"
   style="stop-color:#29AAE1"
   id="stop4" />
		<stop
   offset="0.7361"
   style="stop-color:#287BBA"
   id="stop6" />
	</radialGradient>
	<path
   class="st1"
   d="M214.284,237.392c16.14-16.312,42.308-16.312,58.448,0c16.14,16.311,16.14,42.757,0,59.068   c-16.14,16.312-42.308,16.312-58.448,0C198.144,280.149,198.144,253.703,214.284,237.392"
   id="path9" />
	<linearGradient
   id="SVGID_2_"
   gradientUnits="userSpaceOnUse"
   x1="373.4037"
   y1="343.3777"
   x2="233.2989"
   y2="107.246">
		<stop
   offset="0"
   style="stop-color:#F7A833"
   id="stop11" />
		<stop
   offset="0.52"
   style="stop-color:#8F5935"
   id="stop13" />
		<stop
   offset="1"
   style="stop-color:#5D3E30"
   id="stop15" />
	</linearGradient>
	<path
   class="st2"
   d="M295.169,318.898c-4.515,4.564-11.836,4.564-16.35,0c-4.516-4.563-4.516-11.961,0-16.524   c4.515-4.564,11.836-4.564,16.35,0C299.685,306.936,299.685,314.334,295.169,318.898 M325.374,319.043   c-3.965,6.291-12.224,8.141-18.447,4.134c-6.224-4.007-8.055-12.353-4.09-18.644c3.965-6.289,12.224-8.139,18.447-4.133   C327.508,304.407,329.339,312.753,325.374,319.043z M334.797,354.558c-4.647,7.373-14.326,9.541-21.62,4.844   c-7.295-4.696-9.44-14.477-4.793-21.85c4.647-7.372,14.326-9.54,21.621-4.844C337.299,337.404,339.444,347.186,334.797,354.558z    M394.419,286.305c-1.157,8.89-9.226,15.145-18.021,13.974c-8.796-1.169-14.985-9.322-13.828-18.213   c1.158-8.889,9.226-15.144,18.022-13.975C389.387,269.262,395.576,277.416,394.419,286.305z M386.93,220.607   c2.412,7.73-1.834,15.968-9.48,18.405c-7.648,2.438-15.8-1.851-18.211-9.581c-2.411-7.729,1.833-15.967,9.48-18.405   C376.367,208.589,384.519,212.879,386.93,220.607z M353.114,164.747c4.897,5.401,4.533,13.788-0.81,18.736   c-5.343,4.949-13.641,4.583-18.54-0.818c-4.895-5.4-4.533-13.788,0.81-18.737C339.918,158.981,348.218,159.348,353.114,164.747z    M299.654,128.789c6.053,2.533,8.925,9.544,6.418,15.66c-2.507,6.117-9.443,9.02-15.495,6.487c-6.052-2.533-8.925-9.545-6.42-15.66   C286.665,129.16,293.602,126.256,299.654,128.789z M236.697,119.006c5.915-0.261,10.919,4.373,11.176,10.351   c0.259,5.978-4.326,11.034-10.242,11.295c-5.914,0.261-10.918-4.373-11.178-10.351   C226.197,124.324,230.783,119.267,236.697,119.006z M175.975,136.803c4.747-2.498,10.597-0.633,13.068,4.164   c2.472,4.798,0.627,10.708-4.12,13.207c-4.747,2.497-10.597,0.632-13.068-4.164C169.383,145.212,171.228,139.299,175.975,136.803z    M361.34,307.252c-1.014,7.79-8.085,13.274-15.793,12.248c-7.708-1.025-13.134-8.17-12.119-15.961   c1.014-7.79,8.085-13.273,15.794-12.248C356.931,292.316,362.355,299.462,361.34,307.252z M365.828,253.682   c2.102,6.737-1.598,13.919-8.265,16.043c-6.664,2.124-13.77-1.615-15.872-8.352c-2.102-6.735,1.598-13.917,8.263-16.042   C356.62,243.207,363.725,246.947,365.828,253.682z M347.906,203.657c4.245,4.681,3.931,11.954-0.702,16.243   c-4.632,4.29-11.826,3.972-16.071-0.71c-4.244-4.681-3.93-11.952,0.702-16.243C336.467,198.657,343.661,198.976,347.906,203.657z    M311.248,166.173c5.217,2.183,7.695,8.229,5.534,13.502c-2.162,5.274-8.142,7.778-13.361,5.592   c-5.217-2.184-7.695-8.228-5.533-13.502C300.049,166.493,306.029,163.988,311.248,166.173z M262.834,147.828   c5.072-0.225,9.363,3.75,9.584,8.877c0.221,5.126-3.71,9.462-8.783,9.685c-5.072,0.224-9.362-3.75-9.584-8.877   C253.829,152.388,257.761,148.052,262.834,147.828z M211.667,151.67c4.05-2.13,9.039-0.541,11.146,3.55   c2.107,4.092,0.534,9.135-3.515,11.263c-4.048,2.13-9.037,0.54-11.146-3.55C206.046,158.841,207.62,153.798,211.667,151.67z    M337.96,279.091c-0.85,6.525-6.772,11.118-13.228,10.258c-6.456-0.858-11-6.843-10.15-13.368   c0.85-6.524,6.772-11.116,13.228-10.257C334.267,266.582,338.81,272.568,337.96,279.091z M332.896,238.135   c1.728,5.539-1.313,11.444-6.794,13.189c-5.48,1.747-11.321-1.327-13.05-6.865c-1.727-5.539,1.313-11.443,6.793-13.189   C325.326,229.524,331.169,232.597,332.896,238.135z M311.6,203.593c3.426,3.779,3.172,9.646-0.567,13.109   c-3.738,3.461-9.544,3.205-12.97-0.572c-3.425-3.779-3.172-9.646,0.566-13.108C302.368,199.559,308.174,199.816,311.6,203.593z    M278.342,181.556c4.134,1.731,6.097,6.52,4.384,10.698c-1.712,4.177-6.45,6.16-10.584,4.43c-4.134-1.731-6.096-6.52-4.384-10.697   C269.471,181.81,274.21,179.827,278.342,181.556z M239.441,175.743c3.946-0.174,7.282,2.916,7.453,6.902   c0.173,3.986-2.884,7.358-6.828,7.531c-3.944,0.175-7.28-2.916-7.453-6.901C232.44,179.289,235.498,175.916,239.441,175.743z    M202.099,186.88c3.091-1.626,6.901-0.412,8.508,2.711c1.608,3.122,0.407,6.972-2.682,8.597c-3.09,1.625-6.899,0.412-8.507-2.711   C197.809,192.355,199.01,188.505,202.099,186.88z M310.664,291.546c-1.899,5.273-7.667,7.991-12.885,6.072   c-5.217-1.919-7.907-7.749-6.009-13.021c1.9-5.273,7.668-7.991,12.885-6.072C309.874,280.444,312.562,286.273,310.664,291.546z    M313.38,260.776c0.421,4.86-3.137,9.144-7.945,9.569c-4.809,0.426-9.048-3.17-9.469-8.029c-0.421-4.86,3.137-9.145,7.945-9.57   C308.719,252.321,312.959,255.916,313.38,260.776z M303.294,232.19c2.098,3.673,0.853,8.37-2.782,10.491   c-3.635,2.12-8.282,0.863-10.381-2.811c-2.098-3.673-0.853-8.37,2.782-10.491C296.548,227.258,301.195,228.516,303.294,232.19z    M282.617,210.835c2.99,2.115,3.716,6.278,1.623,9.3c-2.093,3.021-6.213,3.755-9.202,1.639c-2.989-2.115-3.715-6.279-1.622-9.3   C275.509,209.453,279.627,208.719,282.617,210.835z M255.368,200.348c3.124,0.558,5.21,3.569,4.659,6.726   c-0.551,3.157-3.53,5.265-6.655,4.709c-3.124-0.557-5.21-3.568-4.66-6.725C249.264,201.9,252.243,199.792,255.368,200.348z    M226.435,201.625c3.064-0.83,6.214,1.009,7.035,4.106c0.822,3.098-0.997,6.281-4.063,7.11c-3.063,0.83-6.213-1.009-7.035-4.106   C221.552,205.639,223.37,202.456,226.435,201.625z M373.642,349.769c-5.273,8.368-16.258,10.828-24.535,5.497   c-8.279-5.329-10.713-16.429-5.44-24.797c5.274-8.366,16.258-10.825,24.536-5.497C376.482,330.302,378.915,341.403,373.642,349.769   z"
   id="path18" />
	<linearGradient
   id="SVGID_3_"
   gradientUnits="userSpaceOnUse"
   x1="85.9284"
   y1="198.8953"
   x2="282.7048"
   y2="408.2655">
		<stop
   offset="0"
   style="stop-color:#8ABF4A"
   id="stop20" />
		<stop
   offset="1"
   style="stop-color:#007845"
   id="stop22" />
	</linearGradient>
	<path
   class="st3"
   d="M192.088,214.96c4.515-4.563,11.835-4.563,16.351,0c4.515,4.564,4.515,11.961,0,16.525   c-4.515,4.563-11.836,4.563-16.351,0C187.573,226.922,187.573,219.524,192.088,214.96 M161.883,214.815   c3.965-6.291,12.223-8.141,18.447-4.133c6.224,4.007,8.055,12.353,4.09,18.644c-3.965,6.29-12.224,8.14-18.448,4.133   C159.749,229.451,157.919,221.104,161.883,214.815z M152.46,179.301c4.647-7.373,14.326-9.541,21.621-4.844   c7.295,4.696,9.44,14.477,4.793,21.85c-4.647,7.372-14.326,9.54-21.621,4.844C149.958,196.454,147.813,186.673,152.46,179.301z    M113.616,184.089c5.273-8.367,16.258-10.827,24.535-5.497c8.279,5.329,10.713,16.429,5.44,24.796   c-5.274,8.366-16.258,10.825-24.536,5.497C110.776,203.555,108.342,192.455,113.616,184.089z M92.839,247.554   c1.157-8.89,9.226-15.145,18.021-13.974c8.796,1.169,14.985,9.322,13.828,18.212c-1.158,8.889-9.226,15.144-18.021,13.975   C97.87,264.596,91.681,256.443,92.839,247.554z M100.327,313.251c-2.412-7.73,1.833-15.968,9.48-18.405   c7.648-2.438,15.8,1.851,18.211,9.581c2.411,7.729-1.833,15.967-9.48,18.405C110.89,325.269,102.738,320.979,100.327,313.251z    M134.143,369.111c-4.897-5.401-4.533-13.788,0.81-18.736c5.343-4.949,13.642-4.582,18.54,0.818   c4.895,5.4,4.533,13.788-0.809,18.737C147.339,374.877,139.04,374.51,134.143,369.111z M187.604,405.069   c-6.053-2.533-8.926-9.544-6.419-15.66c2.507-6.117,9.443-9.02,15.496-6.487c6.052,2.533,8.925,9.544,6.419,15.66   C200.593,404.699,193.656,407.603,187.604,405.069z M250.56,414.852c-5.916,0.262-10.919-4.373-11.177-10.351   c-0.259-5.978,4.326-11.034,10.242-11.295c5.914-0.261,10.917,4.373,11.177,10.351C261.06,409.534,256.474,414.591,250.56,414.852z    M311.283,397.056c-4.747,2.498-10.597,0.633-13.068-4.164c-2.472-4.797-0.627-10.708,4.12-13.206   c4.747-2.497,10.597-0.632,13.068,4.164C317.874,388.647,316.029,394.559,311.283,397.056z M125.917,226.606   c1.014-7.79,8.085-13.274,15.793-12.247c7.709,1.025,13.133,8.17,12.119,15.961c-1.014,7.79-8.085,13.273-15.794,12.248   C130.327,241.542,124.902,234.396,125.917,226.606z M121.43,280.176c-2.103-6.737,1.598-13.919,8.264-16.042   c6.664-2.124,13.77,1.615,15.872,8.352c2.102,6.736-1.598,13.917-8.263,16.042C130.638,290.651,123.532,286.911,121.43,280.176z    M139.352,330.202c-4.245-4.681-3.931-11.954,0.702-16.243c4.632-4.29,11.827-3.972,16.071,0.71   c4.245,4.681,3.93,11.953-0.701,16.243C150.791,335.201,143.596,334.883,139.352,330.202z M176.009,367.685   c-5.217-2.183-7.695-8.229-5.533-13.502c2.161-5.273,8.141-7.777,13.36-5.592c5.217,2.183,7.695,8.227,5.534,13.502   C187.209,367.365,181.228,369.87,176.009,367.685z M224.423,386.03c-5.072,0.225-9.363-3.75-9.584-8.877   c-0.221-5.125,3.71-9.462,8.783-9.685c5.072-0.224,9.362,3.75,9.584,8.876C233.428,381.47,229.497,385.807,224.423,386.03z    M275.59,382.189c-4.049,2.13-9.039,0.54-11.146-3.551c-2.107-4.092-0.534-9.135,3.515-11.263c4.048-2.13,9.037-0.54,11.146,3.551   C281.211,375.017,279.638,380.059,275.59,382.189z M149.297,254.767c0.85-6.525,6.772-11.117,13.228-10.258   c6.456,0.859,11,6.843,10.15,13.368c-0.85,6.524-6.772,11.117-13.228,10.258C152.991,267.276,148.447,261.291,149.297,254.767z    M154.361,295.723c-1.728-5.539,1.313-11.443,6.793-13.189c5.48-1.746,11.322,1.327,13.05,6.865   c1.727,5.539-1.314,11.443-6.793,13.189C161.931,304.334,156.089,301.261,154.361,295.723z M175.657,330.265   c-3.426-3.779-3.172-9.646,0.567-13.109c3.738-3.462,9.544-3.205,12.97,0.573c3.425,3.779,3.171,9.646-0.566,13.109   C184.889,334.298,179.083,334.042,175.657,330.265z M208.915,352.302c-4.134-1.731-6.097-6.519-4.384-10.698   c1.712-4.177,6.45-6.16,10.584-4.43c4.134,1.731,6.096,6.519,4.384,10.697C217.786,352.048,213.047,354.032,208.915,352.302z    M247.816,358.116c-3.946,0.174-7.282-2.916-7.453-6.903c-0.173-3.986,2.885-7.358,6.829-7.531   c3.944-0.175,7.281,2.915,7.453,6.901C254.817,354.57,251.759,357.942,247.816,358.116z M285.158,346.978   c-3.091,1.626-6.9,0.412-8.508-2.711c-1.608-3.122-0.407-6.972,2.683-8.597c3.09-1.625,6.899-0.412,8.507,2.711   C289.448,341.503,288.247,345.353,285.158,346.978z M176.594,242.313c1.899-5.273,7.667-7.991,12.884-6.072   c5.218,1.919,7.907,7.749,6.008,13.021c-1.9,5.273-7.668,7.99-12.885,6.071C177.384,253.415,174.695,247.585,176.594,242.313z    M173.877,273.082c-0.421-4.86,3.137-9.144,7.945-9.569c4.809-0.426,9.048,3.17,9.469,8.029c0.42,4.86-3.137,9.144-7.946,9.569   C178.537,281.537,174.298,277.942,173.877,273.082z M183.963,301.668c-2.098-3.673-0.853-8.37,2.782-10.491   c3.635-2.121,8.282-0.863,10.381,2.811c2.097,3.674,0.853,8.37-2.782,10.491C190.71,306.6,186.063,305.342,183.963,301.668z    M204.64,323.023c-2.989-2.115-3.716-6.278-1.622-9.3c2.093-3.021,6.212-3.755,9.202-1.64c2.989,2.116,3.715,6.279,1.622,9.3   C211.749,324.405,207.63,325.139,204.64,323.023z M231.89,333.51c-3.124-0.558-5.21-3.569-4.66-6.726   c0.551-3.157,3.53-5.265,6.655-4.709c3.124,0.557,5.211,3.568,4.66,6.725C237.993,331.958,235.015,334.066,231.89,333.51z    M260.822,332.234c-3.064,0.83-6.214-1.009-7.036-4.106c-0.822-3.097,0.998-6.28,4.063-7.11c3.063-0.83,6.214,1.009,7.035,4.106   C265.706,328.22,263.887,331.403,260.822,332.234z"
   id="path25" />
</g>
<linearGradient
   id="SVGID_4_"
   gradientUnits="userSpaceOnUse"
   x1="646.3262"
   y1="211.765"
   x2="646.3262"
   y2="327.3863">
	<stop
   offset="0"
   style="stop-color:#8ABF4A"
   id="stop29" />
	<stop
   offset="1"
   style="stop-color:#007845"
   id="stop31" />
</linearGradient>
<path
   class="st4"
   d="M804.184,227.906c14.244,0,23.106,8.696,26.991,22.325v-35.966c-7.492-4.982-16.568-7.735-26.991-7.735  c-31.639,0-50.905,25.262-50.905,62.007c0,36.746,18.483,61.831,50.905,61.831c10.497,0,19.548-2.615,26.991-7.399V287.18  c-3.885,13.823-12.747,22.519-26.991,22.519c-19.892,0-29.133-17.665-29.133-41.162C775.05,245.218,784.292,227.906,804.184,227.906   M726.183,245.042c0,11.66-5.795,15.9-16.133,15.9h-25.687v-31.622h26.94C721.014,229.319,726.183,234.089,726.183,245.042z   M748.267,242.745c0-24.732-12.217-34.272-34.301-34.272h-40.411c-6.109,0-10.964,6.006-10.964,12.896v107.232h21.772v-46.638  h23.181c12.844,0,15.193,4.593,15.976,19.08c0.157,11.659,0.47,18.549,0.94,20.316c0.157,2.474,0.626,4.946,1.723,7.243h23.964  c-2.036-1.59-3.289-4.24-3.446-7.949l-0.94-23.496c-0.47-7.773-1.41-13.78-3.29-17.843c-2.192-3.709-5.639-6.537-10.181-8.303  C742.472,267.831,748.267,257.938,748.267,242.745z M558.745,268.537c0,35.156,18.482,61.831,49.025,61.831  c15.35,0,23.024-6.006,30.543-16.959l0.94,5.83c0.469,5.477,5.482,9.363,10.651,9.363h5.482v-64.834H612v7.597  c0,6.889,4.855,12.366,10.964,12.366h12.844c-2.349,14.486-10.964,25.616-25.687,25.616c-19.58-1.59-29.133-15.723-28.977-42.045  c0.157-26.322,9.555-39.395,27.881-39.395c10.337,0,17.698,4.77,21.928,14.486c2.506,4.063,5.639,6.183,9.554,6.183h13.47  c-0.783-13.603-5.325-24.026-13.47-31.445c-8.928-7.067-19.735-10.6-32.109-10.6C576.914,205.117,558.276,233.029,558.745,268.537z   M512.226,232.675l14.723,51.055H497.66L512.226,232.675z M507.371,208.473c-5.326,0-8.771,2.649-10.338,7.95l-35.555,112.179  h23.338l7.048-24.556h41.194l7.048,24.556h23.025l-38.218-120.128H507.371z"
   id="path34" />
<linearGradient
   id="SVGID_5_"
   gradientUnits="userSpaceOnUse"
   x1="1018.283"
   y1="327.3632"
   x2="1018.283"
   y2="208.8877">
	<stop
   offset="0"
   style="stop-color:#F7A833"
   id="stop36" />
	<stop
   offset="0.52"
   style="stop-color:#8F5935"
   id="stop38" />
	<stop
   offset="1"
   style="stop-color:#5D3E30"
   id="stop40" />
</linearGradient>
<path
   class="st5"
   d="M974.505,221.369v107.232h21.458v-82.5l43.386,82.5h22.712V208.473h-21.458v82.5l-43.386-82.5h-11.747  C979.361,208.473,974.505,214.48,974.505,221.369"
   id="path43" />
<linearGradient
   id="SVGID_6_"
   gradientUnits="userSpaceOnUse"
   x1="955.6312"
   y1="327.3632"
   x2="955.6312"
   y2="208.8877">
	<stop
   offset="0"
   style="stop-color:#F7A833"
   id="stop45" />
	<stop
   offset="0.52"
   style="stop-color:#8F5935"
   id="stop47" />
	<stop
   offset="1"
   style="stop-color:#5D3E30"
   id="stop49" />
</linearGradient>
<path
   class="st6"
   d="M944.746,328.602h21.771V208.473h-10.808c-7.361,0-10.964,4.416-10.964,12.896V328.602z"
   id="path52" />
<linearGradient
   id="SVGID_7_"
   gradientUnits="userSpaceOnUse"
   x1="882.0938"
   y1="327.3632"
   x2="882.0938"
   y2="208.8877">
	<stop
   offset="0"
   style="stop-color:#F7A833"
   id="stop54" />
	<stop
   offset="0.52"
   style="stop-color:#8F5935"
   id="stop56" />
	<stop
   offset="1"
   style="stop-color:#5D3E30"
   id="stop58" />
</linearGradient>
<path
   class="st7"
   d="M828.683,221.369v107.232h20.518v-96.986l21.772,96.986h22.241l21.771-96.986v96.986h20.519V208.473h-32.422  l-20.831,91.509l-21.458-91.509h-21.145C833.539,208.473,828.683,214.48,828.683,221.369z"
   id="path61" />
<linearGradient
   id="SVGID_8_"
   gradientUnits="userSpaceOnUse"
   x1="-1118.3289"
   y1="-4770.5898"
   x2="-972.6475"
   y2="-4770.5898"
   gradientTransform="matrix(0 1 -1 0 -4337.3867 1238.7963)">
	<stop
   offset="0"
   style="stop-color:#8ABF4A"
   id="stop63" />
	<stop
   offset="1"
   style="stop-color:#007845"
   id="stop65" />
</linearGradient>
<path
   class="st8"
   d="M436.55,266.149c-2.248,0-4.497,0-6.745,0c-0.565-44.284,2.248-97.121,3.372-145.681  C434.302,169.028,437.326,220.915,436.55,266.149"
   id="path68" />
<linearGradient
   id="SVGID_9_"
   gradientUnits="userSpaceOnUse"
   x1="-973.9304"
   y1="-4770.5898"
   x2="-828.249"
   y2="-4770.5898"
   gradientTransform="matrix(0 1 -1 0 -4337.3867 1238.7963)">
	<stop
   offset="0"
   style="stop-color:#5D3E30"
   id="stop70" />
	<stop
   offset="0.48"
   style="stop-color:#8F5935"
   id="stop72" />
	<stop
   offset="1"
   style="stop-color:#F7A833"
   id="stop74" />
</linearGradient>
<path
   class="st9"
   d="M436.55,264.866c-2.248,0-4.497,0-6.745,0c-0.565,44.284,2.248,97.121,3.372,145.681  C434.302,361.987,437.326,310.1,436.55,264.866"
   id="path77" />
</svg>
